#!OML:ASF F:\VICON\USERDATA\INSTALL\rory3\rory3.ASF
:FULLY-SPECIFIED
:DEGREES
144
root 1.4979777689872997 17.932620448267606 54.96468844480549 -3.557680512214738 1.7444268687724873 -5.426772230282836
lfemur -14.738171866353984 -1.7285396598857492 -15.129681356448987
ltibia 55.689863636560055
lfoot -6.747667280874522 0.41914401288396697
ltoes -13.878922889320133
rfemur -9.190792764726858 0.6140935628759934 28.78951056497571
rtibia 34.74198008173747
rfoot -13.600666745785166 -11.871550536544778
rtoes -3.5687518735651755
lowerback nan -0.3896188360449785 2.985432731339487
upperback -0.3801778501769784 0.35025423562522906 2.197056917785575
thorax -6.1455013611679155 0.2210287259557696 1.029207352514273
lowerneck -16.667971684929583 -3.87011354185783 -1.455260663644986
upperneck 21.17886394499685 -5.323868226443794 1.5665634368756085
head 9.585364782361294 -2.380335129744806 0.10028144337668451
lclavicle -2.5769667378524567e-15 -2.7775033407832833e-15
lhumerus -31.291308564827794 2.123252334342329 82.55596426983186
lradius 23.610016406289237
lwrist 11.645157319226
lhand -29.88611513640617 18.0994093309838
lfingers nan
lthumb -3.169945682758603 48.06648142814888
rclavicle -2.5292683018273277e-15 -2.750343683921516e-15
rhumerus -32.09011787878371 -21.389241939510832 -77.15036847266585
rradius 31.972505972750888
rwrist 1.676083010024319
rhand -17.507813732438862 nan
rfingers nan
rthumb 8.720278286631785 -7.250338898374426
145
root 1.4937786372508919 17.936249164685616 54.7380342577417 -3.6365241079146555 2.231314379327781 -5.215958395785336
lfemur -15.737378260538339 -2.127863053330643 -15.913564949839362
ltibia 52.60325766537846
lfoot -6.619222247695857 1.3422325316559367
ltoes -14.479385131048451
rfemur -9.174385104278361 0.17058689770662205 28.199448338928235
rtibia 35.66722667959897
rfoot -11.711883494361617 -11.252491923383747
rtoes -2.9513420243677526
lowerback nan -0.3011382221777864 2.964489252330951
upperback -0.40812690825722303 0.4547253948027931 2.0672314893054415
thorax -6.109447012188965 0.2729031778672575 0.736183278866785
lowerneck -16.53878293625272 -3.900639929456129 -1.4940613232453872
upperneck 21.28674220918951 -5.3828186140487615 1.5995631077946597
head 9.624190857853026 -2.4012970164583476 0.1022654449666941
lclavicle -2.574869198746648e-15 -2.7773032027664415e-15
lhumerus -31.49817727129091 2.4199115651402834 82.48165587041724
lradius 23.875708516248146
lwrist 11.655320501894078
lhand -29.855753515284743 18.149476423392308
lfingers nan
lthumb -3.1801065041829797 48.043319659021186
rclavicle -2.5305113256426206e-15 -2.7536345998136467e-15
rhumerus -32.17638542263292 -21.496659944329238 -77.12736586905525
rradius 31.936807933250034
rwrist 1.5714686611387219
rhand -17.509353024918227 nan
rfingers nan
rthumb 8.680193685708376 -7.345717837443885
146
root 1.4762038931246968 17.92784846693459 53.67876133796141 -3.7661639726419196 2.4230197608982005 -4.805967675913013
lfemur -15.86085359758003 -2.4152419030962977 -16.719911653171334
ltibia 48.4892286508982
lfoot -6.505615140844131 1.3590440874380572
ltoes -16.470195041555204
rfemur -8.793377672184683 0.06717569800051315 27.805720537667618
rtibia 36.73779213679429
rfoot -9.7387390656515 -10.77369893148498
rtoes -1.825044843626511
lowerback nan -0.24422592636776055 2.681309491639631
upperback -0.4210404256594255 0.4358315873918874 1.9044999560218336
thorax -6.095888570318151 0.241742892093127 0.5031561481109309
lowerneck -16.448428474127045 -3.9198839320469654 -1.5296861999434384
upperneck 21.39651863487153 -5.423513637057358 1.6460369843794405
head 9.66298254825219 -2.415591966562452 0.11317521686525889
lclavicle -2.573861572227012e-15 -2.7777138232492053e-15
lhumerus -31.58428682811039 2.629183374286814 82.41519066229775
lradius 24.17989320972311
lwrist 11.624356545814859
lhand -29.866484992833676 18.11164120470797
lfingers nan
lthumb -3.177630161311682 48.05420965264036
rclavicle -2.5316336920136497e-15 -2.756992250877454e-15
rhumerus -32.254586428914095 -21.592578521158746 -77.0556019939539
rradius 31.928400434759393
rwrist 1.3144236864735732
rhand -17.533594313987464 nan
rfingers nan
rthumb 8.688820374916164 -7.329781029968092
147
root 1.494619454588606 17.937143601973503 55.156389424042644 -3.714243278009672 2.658818590856554 -3.9603325163678518
lfemur -15.324989865816486 -2.6765539261465308 -17.826392624019803
ltibia 43.653973633371265
lfoot -5.388655575934948 1.91949520762082
ltoes -16.33776539762275
rfemur -9.413377649821264 -0.20279610617599442 26.798935277124862
rtibia 38.343859953151686
rfoot -8.011463165884074 -10.484697281391853
rtoes -0.281636214943223
lowerback nan -0.2489878086835662 2.137301907767723
upperback -0.4134510781019811 0.2869800245500337 1.7228845648155782
thorax -6.060886608500294 0.18306774795333453 0.5300843072922132
lowerneck -16.393043870646373 -3.93165463915268 -1.562513335352534
upperneck 21.47800906776368 -5.451129616652107 1.712976647247125
head 9.692058106904453 -2.424159224062586 0.13480402462378757
lclavicle -2.574103925007821e-15 -2.778544433274495e-15
lhumerus -31.56644524744924 2.7373772795495306 82.35902404666412
lradius 24.509471223370863
lwrist 11.533794069690465
lhand -29.82918957348975 18.186081806792615
lfingers nan
lthumb -3.163227514914273 48.0871688942008
rclavicle -2.532621858444395e-15 -2.759571736278202e-15
rhumerus -32.383748539303674 -21.704201451889464 -76.94518305209932
rradius 31.946028309968366
rwrist 1.090053513108563
rhand -17.52678559996776 nan
rfingers nan
rthumb 8.662988717943072 -7.383314082018618
